<svg width="15" height="9" viewBox="0 0 15 9" fill="none" xmlns="http://www.w3.org/2000/svg">
<path d="M14.8501 7.97215L14.0987 8.72355C13.9985 8.82389 13.8832 8.8739 13.7528 8.8739C13.6227 8.8739 13.5074 8.82389 13.4073 8.72355L7.50008 2.81666L1.59313 8.72339C1.49295 8.82373 1.37766 8.87374 1.24742 8.87374C1.11712 8.87374 1.00183 8.82373 0.901698 8.72339L0.150353 7.97194C0.0500125 7.87181 0 7.75652 0 7.62622C0 7.49603 0.0501704 7.38074 0.150353 7.28061L7.15436 0.276444C7.25449 0.176261 7.36984 0.126196 7.50008 0.126196C7.63032 0.126196 7.74546 0.176261 7.84553 0.276444L14.8501 7.28061C14.9503 7.38079 15 7.49608 15 7.62622C15 7.75652 14.9503 7.87181 14.8501 7.97215Z" fill="#343434"/>
</svg>
